# xmcd CD database file
#
# Track frame offsets:
#	183
#	14925
#	23855
#	36258
#	47710
#	63550
#	76350
#	88955
#	100928
#	112413
#
# Disc length: 1712 seconds
#
# Revision: 5
# Processed by: cddbd v1.5.2PL0 Copyright (c) Steve Scherf et al.
# Submitted via: jetAudio 7
#
DISCID=8f06ae0a
DTITLE=The Statler Brothers - Christmas Present
DYEAR=1985
DGENRE=Country
TTITLE0=Christmas Eve (Kodia's Theme)
TTITLE1=Christmas Country Style
TTITLE2=Brahm's Bethlehem Lullaby
TTITLE3=Somewhere In The Night
TTITLE4=An Old Fashioned Christmas
TTITLE5=No Reservation At The Inn
TTITLE6=Mary's Sweet Smile
TTITLE7=Whose Birthday Is Christmas
TTITLE8=Old Toy Trains
TTITLE9=For Momma
EXTD=
EXTT0=
EXTT1=
EXTT2=
EXTT3=
EXTT4=
EXTT5=
EXTT6=
EXTT7=
EXTT8=
EXTT9=
PLAYORDER=
